<svg xmlns="http://www.w3.org/2000/svg" width="595.2" height="308" viewBox="0 0 595.2 308"><path fill-rule="evenodd" fill="#f70" clip-rule="evenodd" d="M588.372 122.552c.43-7.567 1.916-17.913-4.006-20.396-.741.182-6.528-2.048-9.188 1.738-.75 1.068-21.456 67.371-22.379 68.295-1.475 1.476-3.711-59.068-4.407-61.979-.708-2.967-3.154-7.742-6.192-8.013-4.83-.431-8.623 3.411-14.883 19.725-8.542 22.261-17.715 52.703-19.929 53.019-6.28.896-17.834-23.589-20.323-31.708 14.644-23.208 32.285-32.124 32.285-32.124 0-3.794-5.212-9.603-10.243-8.536-8.346 1.769-21.023 17.337-35.282 43.059 1.799-16.491 3.41-45.408 2.373-62.779-.336-5.646.274-14.981-6.919-14.204-6.562.71-8.731 11.091-8.071 18.8-9.564 16.524-34.384 61.753-35.666 62.802-2.709-1.393-10.133-8.834-10.575-14.84-.328-4.458 1.916-12.857 7.414-17.407 8.143-6.737 16.549-7.948 16.549-7.948 1.895-1.925-5.059-10.639-12.263-10.451-12.776.333-25.845 20.87-26.952 30.228-3.171 3.683-21.71 41.491-23.389 44.061-6.829-3.983 6.829-57.855-4.363-61.459-7.678-2.473-22.235 21.879-26.224 27.631.782-3.957 6.495-29.967 5.683-34.627-.579-3.328-7.669-4.727-12.066-3.629-2.859.716-3.509 18.621-9.352 30.989-2.235 4.73-27.46 51.931-44.966 46.854-4.77-1.384-11.421-4.421-9.674-19.729 0 0 13.315-3.171 26.936-12.899 10.625-7.588 20.07-25.169 13.281-36.041-2.081-3.337-10.695-11.68-23.904-8.536-23.901 5.691-29.424 41.384-30.037 46.328-2.436.953-11.116.904-11.116.904-.459 2.336-1.072 9.514 1.698 11.761 2.378 1.929 8.33 1.132 8.33 1.132.025 11.986 4.237 34.462 27.142 31.495 19.507-2.528 38.501-33.241 43.917-43.84.004 1.772-3.637 32.725-2.671 36.451 1.295 4.994 6.077 5.493 11.484 3.576 1.901-1.239.811-34.382 24.142-59.421 0 0-6.26 30.919-1.517 51.974.904 4.013 4.674 12.096 9.004 12.46 11.237.948 26.815-46.993 28.392-50.867 2.067 11.304 12.673 17.997 17.005 21.528-3.432 6.357-16.049 26.799-2.617 34.141 7.792 4.259 16.048 1.353 19.846-2.857 18.18-20.153 2.138-34.25-2.184-40.793 0 0 26.713-45.64 28.687-46.95-1.169 28.501.622 52.214-1.36 79.823.797 3.177 2.789 5.451 10.756 3.554 0 0 6.473-28.818 9.318-31.663.557 1.47 13.469 39.076 29.591 33.385 5.999-2.118 8.78-19.041 14.227-33.511 5.005-13.294 11.97-31.381 12.393-31.615 1.486 5.474-2.276 60.194 9.99 63.988 6.44 1.992 12.162-5.142 14.292-10.116 6.909-16.138 11.941-44.872 14.057-45.746.379 5.364 4.295 64.28-.655 102.905-5.274 41.159-28.972 54.47-28.972 54.47 1.024 1.424 6.815-1.796 13.038-7.933 3.964-3.909 6.449-7.967 6.449-7.967.885.759-3.24 7.385-8.472 12.013-2.704 2.39-6.726 5.574-10.578 6.87 1.894 3.699 8.391 7.611 11.083 5.776 28.579-19.474 34.359-61.644 35.31-82.092 1.029-22.09-3.652-92.461-3.277-99.059zm-285.503-6.823c4.569 4.582.683 13.281-6.829 20.107-7.796 7.081-18.994 9.979-18.969 9.772 3.794-30.258 20.967-34.724 25.798-29.879zm127.67 66.646c-1.599 7.092-7.848 10.648-10.584 6.697-1.707-2.466 4.041-13.89 5.59-17.319 2.452 1.407 6.006 6.133 4.994 10.622zm-190.004-33.04c-21.333 45.168-8.826 69.691-5.917 80.967-2.17-.865-2.632-4.216-3.643-5.462-.221 2.405 2.702 7.804 2.697 8.185-6.449 5.247-12.553 3.96-14.922 0-11.686-19.532-6.929-54.036 1.035-75.564 5.75-15.542 15.284-30.059 24.407-41.675-12.105.815-27.803 1.476-41.162-1.938-3.439-2.285-4.692-9.428-4.129-12.035 23.034 3.674 43.472 1.627 65.889 0 4.558.777 4.966 4.081 6.492 9.724.001 0-22.194 19.693-30.747 37.798zm-37.821-26.967c0 23.331-27.333 67.3-47.801 56.528-7.208-3.794-8.64-18.988-6.639-22.764 42.553-16.377 49.382-28.426 46.284-43.249-2.217-10.606-16.393-13.219-25.231-9.988-20.512 6.184-29.221 25.694-36.094 46.389-5.485 2.379-9.253 3.659-14.537 6.238-31.705-38.097-94.54-33.897-94.54-65.211-1.265-17.199 32.648-33.506 38.827-35.609-.637-1.19-26.814 8.294-39.713 24.48l-.417-.332c22.042-28.5 67.363-36.693 105.24-35.288 32.023 1.188 46.908 13.319 50.593 20.219 0 0 .963-.519 1.645-1.354 1.693-11.638.176-15.179-8.472-23.711-25.292-21.498-73.537-18.454-118.243-2.976-51.516 18.516-51.798 45.895-51.595 50.837.681 16.592 5.351 30.523 40.4 44.64 33.59 13.527 57.104 20.3 63.392 30.959-27.602 14.907-58.936 37.863-51.527 62.336 4.316 14.258 40.076 11.633 68.051-17.799 15.883-16.71 2.795-41.961 2.503-42.764 1.903-1.504 5.616-2.515 7.818-3.327-.632 5.311 1.96 33.829 25.671 33.829 28.833 0 55.209-40.073 55.199-64.495-.003-4.286-6.641-7.588-10.814-7.588zm-28.794-9.14c6.829-2.007 9.745 3.436 9.226 6.702-1.238 7.807-9.595 12.994-32.358 22.479 3.795-12.52 11.861-25.867 23.132-29.181zm-58.04 71.859c-2.568 15.113-16.875 23.712-31.861 30.921-4.049 1.947-15.716 5.379-16.821.053-2.615-12.59 35.772-39.591 45.429-45.784l.352-.236c.096.024.118.12.235.12 2.04 2.421 3.325 11.054 2.666 14.926z"/></svg>